<svg width="25" height="25" viewBox="0 0 25 25" fill="none" xmlns="http://www.w3.org/2000/svg">
<g clip-path="url(#clip0_283_1680)">
<path fill-rule="evenodd" clip-rule="evenodd" d="M14.375 0C11.97 0 10 1.965 10 4.36275C10 4.71275 10.0425 5.05274 10.1215 5.37949L8.5415 6.11324L0.88825 2.55825C0.807544 2.52072 0.719752 2.50086 0.63075 2.5C0.548191 2.49924 0.4663 2.51484 0.389807 2.54591C0.313313 2.57698 0.243734 2.6229 0.185087 2.68101C0.126439 2.73912 0.0798874 2.80828 0.0481193 2.88448C0.0163512 2.96069 -3.49355e-06 3.04243 5.59759e-10 3.125L5.59759e-10 20.6975C1.99877e-05 20.8166 0.0340811 20.9332 0.0981714 21.0336C0.162262 21.1341 0.253712 21.2141 0.36175 21.2642L8.27825 24.9417C8.36247 24.9809 8.45437 25.0008 8.54725 25C8.6364 24.9993 8.72437 24.9795 8.80525 24.942L16.4585 21.3867L24.1117 24.9417C24.207 24.9859 24.3118 25.0055 24.4166 24.9985C24.5213 24.9915 24.6227 24.9582 24.7112 24.9018C24.7997 24.8453 24.8726 24.7674 24.923 24.6753C24.9735 24.5833 25 24.48 25 24.375V6.80249C25 6.68337 24.9659 6.56674 24.9018 6.46633C24.8377 6.36592 24.7463 6.28592 24.6383 6.23574L18.6523 3.455C18.23 1.4885 16.4678 0 14.375 0ZM14.375 2.0445C15.67 2.0445 16.6998 3.0715 16.6998 4.36275C16.6998 5.65399 15.6698 6.68074 14.375 6.68074C13.08 6.68074 12.0503 5.65399 12.0503 4.36275C12.0503 3.0715 13.0802 2.0445 14.375 2.0445ZM1.25 4.1045L8.06875 7.27199L8.1615 23.5095L1.25 20.298V4.1045ZM18.7183 4.86375L23.75 7.20124V23.3955L16.8305 20.1812L16.766 8.92674L18.2603 6.38424C18.328 6.26174 18.3813 6.13149 18.4277 5.99799C18.5755 5.63483 18.6733 5.25325 18.7183 4.86375ZM10.5918 6.53949C10.6567 6.65099 10.7245 6.76024 10.7987 6.86524L13.8413 12.124C14.2673 12.6807 14.5505 12.575 14.9047 12.0947L16.0235 10.191L16.0805 20.1835L8.9115 23.5142L8.81925 7.36274L10.5918 6.53949Z" fill="white"/>
</g>
<defs>
<clipPath id="clip0_283_1680">
<rect width="25" height="25" fill="white"/>
</clipPath>
</defs>
</svg>
