<svg width="24" height="24" viewBox="0 0 24 24" fill="none" xmlns="http://www.w3.org/2000/svg">
<path d="M19 3.00049C19.7956 3.00049 20.5587 3.31656 21.1213 3.87917C21.6839 4.44178 22 5.20484 22 6.00049V16.0005C22 16.7961 21.6839 17.5592 21.1213 18.1218C20.5587 18.6844 19.7956 19.0005 19 19.0005H7.333L4 21.5005C3.176 22.1185 2 21.5305 2 20.5005V6.00049C2 5.20484 2.31607 4.44178 2.87868 3.87917C3.44129 3.31656 4.20435 3.00049 5 3.00049H19ZM19 5.00049H5C4.73478 5.00049 4.48043 5.10585 4.29289 5.29338C4.10536 5.48092 4 5.73527 4 6.00049V19.0005L6.133 17.4005C6.47919 17.1408 6.90026 17.0005 7.333 17.0005H19C19.2652 17.0005 19.5196 16.8951 19.7071 16.7076C19.8946 16.5201 20 16.2657 20 16.0005V6.00049C20 5.73527 19.8946 5.48092 19.7071 5.29338C19.5196 5.10585 19.2652 5.00049 19 5.00049ZM11 12.0005C11.2549 12.0008 11.5 12.0984 11.6854 12.2733C11.8707 12.4483 11.9822 12.6874 11.9972 12.9419C12.0121 13.1963 11.9293 13.4469 11.7657 13.6423C11.6021 13.8378 11.3701 13.9634 11.117 13.9935L11 14.0005H8C7.74512 14.0002 7.49997 13.9026 7.31463 13.7276C7.1293 13.5527 7.01777 13.3135 7.00283 13.0591C6.98789 12.8047 7.07067 12.5541 7.23426 12.3587C7.39786 12.1632 7.6299 12.0376 7.883 12.0075L8 12.0005H11ZM16 8.00049C16.2652 8.00049 16.5196 8.10585 16.7071 8.29338C16.8946 8.48092 17 8.73527 17 9.00049C17 9.2657 16.8946 9.52006 16.7071 9.70759C16.5196 9.89513 16.2652 10.0005 16 10.0005H8C7.73478 10.0005 7.48043 9.89513 7.29289 9.70759C7.10536 9.52006 7 9.2657 7 9.00049C7 8.73527 7.10536 8.48092 7.29289 8.29338C7.48043 8.10585 7.73478 8.00049 8 8.00049H16Z" fill="white"/>
</svg>
