<svg width="30" height="30" viewBox="0 0 30 30" fill="none" xmlns="http://www.w3.org/2000/svg">
<g clip-path="url(#clip0_283_1696)">
<path d="M13.8523 3.84766C13.9226 3.84766 14.0105 3.88281 14.0867 3.98828C13.7468 3.50195 14.4675 3.71289 14.5085 3.25C14.9187 2.94531 14.7722 2.74609 14.8894 2.73438L15.0183 2.62891C14.7664 2.72266 14.6785 2.74023 14.6082 2.74023H14.491C14.4031 2.74023 14.2566 2.75781 13.9109 2.86328C13.1199 2.92188 12.5515 3.77734 12.282 3.80078C12.0066 3.94727 12.0183 3.97656 12.0828 3.97656C12.1003 3.97656 12.1238 3.9707 12.1472 3.9707C12.1707 3.9707 12.1882 3.96484 12.2058 3.96484C12.2703 3.96484 12.2527 3.99414 11.8777 4.16992C11.9656 4.19336 11.2214 4.52148 11.2156 5.03711C11.1921 5.23633 11.2742 5.37109 11.4089 5.37109C11.5261 5.37109 11.6726 5.2832 11.8308 5.06055C12.3582 4.45117 13.4714 4.39258 13.9519 4.02344C13.6531 4 13.7117 3.84766 13.8523 3.84766ZM11.1746 4.05273C11.1218 4.05273 11.1921 3.98828 11.2683 3.92383C11.3503 3.85938 11.4441 3.79492 11.4441 3.79492L11.4382 3.80078C11.7546 3.67773 11.5613 3.64844 11.7312 3.56641H11.7195C11.6843 3.56641 11.7488 3.51953 11.8074 3.4668C11.866 3.41992 11.9187 3.36719 11.866 3.36719C11.8367 3.36719 11.7605 3.38477 11.6316 3.4375C11.6726 3.37891 11.8308 3.33789 12.0535 3.21484C11.7312 3.32031 11.4792 3.38477 11.45 3.38477C11.4265 3.38477 11.5613 3.33789 11.9656 3.21484C11.9832 3.21484 12.0007 3.2207 12.0125 3.2207C12.0535 3.2207 12.071 3.20898 12.0652 3.19727C12.0593 3.18555 12.0359 3.17969 11.9949 3.17969C11.4148 3.22656 10.9812 3.58984 11.1101 3.63672C11.1863 3.61328 11.239 3.60156 11.2742 3.60156C11.3503 3.60156 11.3152 3.66602 11.1628 3.75977C11.2332 3.92383 9.99097 4.3457 9.85034 4.49805C9.92065 4.45703 9.96753 4.44531 9.99097 4.44531C10.0847 4.44531 9.96167 4.62695 9.83862 4.71484C9.91479 4.78516 9.97339 4.80859 10.0203 4.80859C10.1433 4.80859 10.196 4.63867 10.3015 4.58594C10.325 4.63281 10.3484 4.65625 10.3777 4.65625C10.4773 4.65625 10.6003 4.41016 10.7 4.28125C10.7292 4.31055 10.7644 4.33398 10.8113 4.33398C10.905 4.33398 11.0457 4.25781 11.2683 4.04102C11.2214 4.04688 11.1863 4.05273 11.1746 4.05273ZM9.8269 5.13086C9.61597 5.25977 9.50464 5.3125 9.45776 5.3125C9.36987 5.3125 9.48706 5.14844 9.59253 4.97852C9.698 4.81445 9.79175 4.65039 9.65698 4.65039C9.59253 4.65039 9.47534 4.68555 9.28784 4.7793C8.77808 5.11914 7.91675 6.05664 7.53589 6.05664H7.50073C8.11597 5.60547 7.93433 4.7207 8.79565 4.49219C9.64526 4.00586 10.2253 4.1582 10.9812 3.60156C10.7585 3.71289 10.4304 3.83594 10.3542 3.83594C10.3074 3.83594 10.3777 3.77734 10.6824 3.63086C10.6531 3.63672 10.6296 3.64258 10.6121 3.64258C10.407 3.64258 11.9597 3.08594 12.0359 3.07422C11.3972 3.16211 10.366 3.69531 10.2253 3.69531C10.2078 3.69531 10.2078 3.68945 10.2078 3.67773C10.2312 3.66016 10.2312 3.64844 10.2078 3.64844C10.1316 3.64844 9.81519 3.75391 9.49292 3.85938C9.17651 3.96484 8.85425 4.07617 8.78394 4.07617C8.7605 4.07617 8.7605 4.06445 8.79565 4.04102C6.03003 5.61133 3.72144 8.25977 3.00073 11.4004C3.29956 12.0859 3.09448 13.3926 3.58667 13.7734C4.14917 14.248 3.1062 15.625 3.38159 16.4746C3.66284 18.0098 4.87573 19.0586 5.00464 20.6289C5.22729 21.707 6.04175 23.0254 6.38159 23.7109C6.6394 23.9688 7.34839 24.7129 7.47144 24.7129C7.51831 24.7129 7.48901 24.6016 7.30151 24.3027C7.18433 23.9688 6.50464 23.0957 6.83276 23.0957C6.85034 23.0957 6.86792 23.0957 6.89136 23.1016C6.48706 22.6914 7.78784 22.8027 6.87964 22.2461C6.77417 22.1172 6.75073 22.0762 6.77417 22.0762C6.80347 22.0762 6.8855 22.123 6.97925 22.1699C7.07886 22.2168 7.19604 22.2637 7.28979 22.2637C7.43628 22.2637 7.53589 22.1641 7.47729 21.8008C7.50073 21.8125 7.52417 21.8125 7.54175 21.8125C7.69409 21.8125 7.64136 21.5137 7.65308 21.2148C7.66479 20.916 7.74097 20.6172 8.15112 20.6172C8.198 20.6172 8.25073 20.623 8.30347 20.6289C9.25269 20.1133 8.42651 18.6895 9.51636 18.168C9.47534 16.9844 7.88745 16.9258 7.28979 16.4453C7.19019 16.5039 7.09644 16.5215 7.00269 16.5215C6.89722 16.5215 6.80347 16.498 6.72144 16.4688C6.6394 16.4453 6.56323 16.416 6.5105 16.416C6.49878 16.416 6.48706 16.416 6.47534 16.4219C7.49487 16.1523 6.75073 14.7344 5.90698 14.7344H5.84839C5.78394 14.1191 5.46753 14.3535 5.43237 13.8438C5.37964 13.873 5.3269 13.8848 5.27417 13.8848C5.13354 13.8848 5.00464 13.7852 4.89331 13.6914C4.78198 13.5918 4.68823 13.498 4.6062 13.498C4.54175 13.498 4.48315 13.5625 4.43042 13.75C4.48901 13.4629 4.47144 13.3691 4.41284 13.3691C4.35425 13.3691 4.24878 13.4688 4.13159 13.5684C4.02026 13.668 3.89136 13.7676 3.79175 13.7676H3.76245C3.0769 13.2812 3.76831 12.4199 3.40503 11.7578C3.6394 11.5059 3.73315 11.0781 3.62769 11.0781C3.57495 11.0781 3.46948 11.1836 3.30542 11.4707C3.07104 10.873 3.69214 9.51953 4.21948 9.44336C4.23706 9.44336 4.24878 9.4375 4.26636 9.4375C4.36011 9.4375 4.45386 9.48438 4.53589 9.58398C4.58276 9.85938 4.46558 10.4395 4.51245 10.4395C4.53589 10.4395 4.58276 10.3223 4.69995 10.0176C4.85229 9.32031 5.9187 8.81641 6.03003 8.38867C6.03589 8.39453 6.03589 8.39453 6.04175 8.39453C6.16479 8.39453 6.95581 7.69727 7.30151 7.62109C7.43628 7.48633 7.53003 7.43945 7.60034 7.43945C7.67651 7.43945 7.71753 7.49805 7.74683 7.55078C7.77612 7.60938 7.79956 7.66211 7.82886 7.66211C7.85229 7.66211 7.88159 7.62695 7.93433 7.52734C7.75269 7.16992 8.22144 6.83008 8.09253 6.83008C8.04565 6.83008 7.90503 6.87695 7.61792 6.99414C7.57104 7.01758 7.54761 7.02344 7.53589 7.02344C7.50073 7.02344 7.64136 6.92969 7.84644 6.83594C8.05151 6.74219 8.30933 6.64844 8.52612 6.64844C8.63159 6.64844 8.72534 6.67188 8.79565 6.73047C9.70386 6.51367 9.20581 6.21484 9.25269 6.21484H9.2644C9.52222 6.0625 9.44604 5.48828 9.8269 5.13086ZM5.76636 7.52734C5.75464 7.52734 5.80737 7.45117 5.98315 7.23438C6.34644 6.96484 6.6394 6.7832 6.30542 6.60742C6.4519 6.54297 6.59253 6.4668 6.72729 6.38477C6.72144 6.67188 6.4812 7.36914 6.35229 7.36914C6.323 7.36914 6.2937 7.32812 6.28198 7.24023C6.35815 7.10547 6.36401 7.05273 6.33472 7.05273C6.28784 7.05273 6.15308 7.16992 6.02417 7.29297C5.89526 7.4043 5.77808 7.52734 5.76636 7.52734ZM6.10034 7.68555C5.94214 7.68555 5.97144 7.58594 6.45776 7.48633C6.6687 7.45703 6.50464 7.46875 6.75659 7.41016C6.5105 7.60938 6.23511 7.68555 6.10034 7.68555ZM15.2117 7.09375C15.282 7.08203 15.3347 7.08203 15.3757 7.08203C15.5457 7.08203 15.4695 7.15234 15.3699 7.22266C15.2703 7.29297 15.1472 7.36328 15.2175 7.36328C15.2585 7.36328 15.3699 7.33984 15.5984 7.27539C16.7527 7.19336 15.1472 6.21484 15.405 5.88672L15.3347 5.86328C14.8601 6.4668 15.6511 6.47852 15.2117 7.09375ZM14.7312 7.11719C14.8132 7.11719 14.9187 7.02344 15.03 6.75977C15.1824 6.57812 15.1179 6.55469 14.9539 6.4668C14.5027 6.58398 14.5437 7.11719 14.7312 7.11719ZM18.7742 8.97461C18.7566 8.97461 18.7449 8.98047 18.7332 8.98633C18.78 8.99805 18.8269 9.00977 18.8738 9.00977C18.8269 8.98633 18.7976 8.97461 18.7742 8.97461ZM26.6433 10.4336C26.7429 10.6504 26.7957 10.7383 26.8015 10.7383C26.8425 10.7383 26.0632 8.83984 25.741 8.5C24.0593 5.73438 21.2937 3.61914 18.1414 2.82812H18.1355C18.0535 2.82812 18.1472 2.86914 18.2585 2.91016C18.3699 2.95117 18.5046 2.99219 18.5046 2.99219C18.5046 2.99219 18.4167 2.96289 18.1472 2.88672C17.8484 2.79883 17.5437 2.73438 17.2332 2.71094C17.1804 2.72852 18.5164 3.25586 19.4128 3.53125C19.114 3.4375 18.8035 3.35547 18.7273 3.35547C18.6746 3.35547 18.7273 3.39062 18.9441 3.48438C18.6804 3.4082 18.5691 3.37305 18.5574 3.37305C18.5398 3.37305 18.9089 3.49609 19.2546 3.61914C19.6062 3.74219 19.9402 3.86523 19.8464 3.86523C19.823 3.86523 19.7585 3.85352 19.6589 3.83594C19.9578 4 20.0632 4.06445 20.0457 4.06445C20.0164 4.06445 19.6472 3.88867 19.2664 3.71289C18.8914 3.53711 18.5105 3.36133 18.4578 3.36133C18.4285 3.36133 18.5046 3.41992 18.7625 3.57227C19.114 3.72461 19.4656 3.87695 19.366 3.87695C19.3191 3.87695 19.1843 3.84766 18.9207 3.77148C19.5066 4.07031 18.5046 3.95313 18.8445 4.35742C18.657 4.18164 18.5808 4.12305 18.5632 4.12305C18.5457 4.12305 18.5925 4.19336 18.6394 4.26367C18.6863 4.33398 18.7214 4.4043 18.6804 4.4043H18.6687C19.0789 4.84961 18.3816 4.45117 18.8796 4.84961C18.5046 4.67969 17.866 4.39844 18.1531 4.39844C18.2234 4.39844 18.3582 4.41602 18.5691 4.46289C18.1882 4.01758 17.1101 4 17.0867 3.94727C16.8171 3.96484 16.8113 4.16992 16.8582 4.54492C16.8523 5.13672 16.2722 5.14844 16.3484 5.48828C16.3484 5.48242 16.3542 5.48242 16.3542 5.48242C16.366 5.48242 16.3718 5.59961 16.407 5.72266C16.448 5.83984 16.5183 5.96289 16.6707 5.96289C16.7527 5.96289 16.8582 5.92773 16.9871 5.83984C17.1687 6.16797 17.3328 6.28516 17.4617 6.28516C17.655 6.28516 17.7722 6.02148 17.7605 5.78125C17.5496 5.66406 17.2742 4.69141 17.5789 4.69141C17.6257 4.69141 17.6843 4.71484 17.7605 4.76758C17.2859 5.93359 19.6355 5.1543 18.3054 5.6875C18.6042 6.08008 18.1179 6.0625 18.2585 6.53711C18.03 6.60156 17.7781 6.66016 17.5554 6.66016C17.2273 6.66016 16.9753 6.51953 17.0046 6.02734C16.5945 6.24414 17.4148 6.97656 16.6003 6.97656H16.5535C16.1609 7.69727 14.6902 7.45117 15.8445 8.21289C15.9089 8.54688 15.698 8.60547 15.4285 8.60547C15.3582 8.60547 15.282 8.59961 15.2058 8.59375C15.1296 8.58789 15.0535 8.58789 14.9832 8.58789C14.6785 8.58789 14.4617 8.66406 14.6492 9.13867C14.5144 9.63086 14.8308 9.84766 15.2175 9.84766C15.6863 9.84766 16.2605 9.54297 16.3015 9.03906C16.5535 8.6582 16.8757 8.5 17.2097 8.5C17.7371 8.5 18.2937 8.89844 18.657 9.39062C18.6863 9.4375 18.7097 9.45508 18.7214 9.45508C18.7507 9.45508 18.7214 9.33789 18.7097 9.2207C18.698 9.12695 18.698 9.0332 18.7332 9.00391C18.2117 8.85742 17.8132 8.22461 17.989 8.22461C18.0476 8.22461 18.1707 8.29492 18.3699 8.48242H18.3992C18.7273 8.48242 18.9851 8.74023 19.1843 8.99805C19.3894 9.25586 19.5417 9.51367 19.6765 9.51367C19.7292 9.51367 19.782 9.4668 19.8289 9.36133C19.8054 9.32617 19.7468 9.22656 19.7175 9.12695C19.6824 9.00391 19.6824 8.88086 19.8406 8.88086C19.905 8.88086 19.9929 8.9043 20.116 8.95117C20.5144 8.8457 19.864 7.80859 20.3914 7.80859C20.4441 7.80859 20.5085 7.82031 20.5906 7.84375C20.5847 8.02539 20.6667 8.08984 20.7429 8.08984C20.8953 8.08984 21.0476 7.87305 20.6785 7.80859C20.8191 7.67383 20.9011 7.62109 20.9597 7.62109C21.1648 7.62109 21.0007 8.30078 21.7097 8.30078C21.95 8.86914 19.6238 8.3418 20.3679 9.43164C20.5378 9.55469 20.7488 9.57812 20.9539 9.57812C21.0183 9.57812 21.0769 9.57812 21.1355 9.57227C21.1941 9.57227 21.2527 9.56641 21.3054 9.56641C21.6687 9.56641 21.9265 9.6543 21.7683 10.4043C21.575 10.5449 21.3582 10.5918 21.1355 10.5918C20.9363 10.5918 20.7371 10.5566 20.5437 10.5215C20.3503 10.4863 20.1628 10.4512 19.9929 10.4512C19.7292 10.4512 19.5183 10.5391 19.3894 10.8438C18.7039 10.5625 17.8015 10.5508 17.8894 9.70117C16.6941 9.87109 15.446 9.7832 14.5671 10.5156C14.5144 11.5879 12.6746 11.9336 13.1199 13.1523C12.5867 14.2773 13.7644 15.8535 14.9656 15.8535C15.0066 15.8535 15.0535 15.8535 15.0945 15.8477C15.7507 15.8418 16.4128 15.5488 16.9929 15.5488C17.2917 15.5488 17.5613 15.625 17.7957 15.8594C17.8484 15.8535 17.8953 15.8477 17.9363 15.8477C18.8328 15.8477 17.6492 17.2715 18.7214 17.5117C19.6941 18.5195 18.1238 19.5566 18.8914 20.5234C18.9734 21.2793 19.3484 21.9121 19.3484 22.6504C19.448 22.6621 19.5417 22.668 19.6414 22.668C20.8777 22.668 21.6511 21.5898 22.3777 20.7754C22.155 19.5566 24.1062 19.3164 23.4382 17.9512C23.1277 16.457 24.9089 15.5723 24.8093 14.0781C24.8269 13.8672 24.7683 13.8027 24.6804 13.8027C24.5925 13.8027 24.4636 13.8672 24.3406 13.9258C24.2117 13.9902 24.071 14.0488 23.9597 14.0488C23.8132 14.0488 23.7019 13.9492 23.6902 13.6211C22.8289 12.8184 22.4363 11.7285 21.6335 10.8438C22.6765 11.3477 23.2683 12.4844 23.7488 13.5156C23.7898 13.5273 23.8308 13.5332 23.8777 13.5332C24.7273 13.5332 25.9109 11.5 24.6218 11.0078C24.5515 11.2012 24.4578 11.2715 24.3464 11.2715C24.1531 11.2715 23.9304 11.0371 23.7722 10.8086C23.614 10.5742 23.532 10.3398 23.6199 10.3398C23.6785 10.3398 23.8074 10.4336 24.03 10.6797C24.282 10.8379 24.5281 10.8789 24.7859 10.8789C25.0378 10.8789 25.2957 10.8379 25.5652 10.8145C25.905 10.9492 26.0515 11.3828 26.157 11.3828C26.1746 11.3828 26.198 11.3652 26.2156 11.3242C26.4851 11.9688 26.7957 13.1172 27.0769 13.4277C26.9304 12.4434 26.8953 11.4004 26.6433 10.4336ZM23.3738 9.08008C22.7117 8.91016 22.4949 8.08984 21.9734 7.61523C21.9675 7.48633 22.1609 7.50977 22.114 7.29297C22.8171 7.50977 22.5886 7.72656 22.5242 7.76758C22.782 8.19531 23.5027 8.48828 23.3738 9.08008ZM14.2742 4.62109C13.6355 4.80859 13.5476 4.60352 13.6589 4.99609C13.7058 5.03125 13.7937 5.04297 13.8816 5.04297C14.1921 5.04883 14.614 4.86719 14.2742 4.62109ZM23.655 20.7637C24.4929 20.0547 24.5984 19.2109 24.6394 18.3555C24.2644 19.0879 23.1511 19.8965 23.655 20.7637ZM19.8406 9.33789C19.8347 9.34375 19.8347 9.34375 19.8347 9.34961C19.8406 9.36133 19.8464 9.36133 19.8464 9.36133C19.8464 9.36133 19.8464 9.35547 19.8406 9.33789ZM15.0066 0.00390625C6.72144 0.00390625 0.0065918 6.71875 0.0065918 15.0039C0.0065918 23.2891 6.72144 30.0039 15.0066 30.0039C23.2917 30.0039 30.0066 23.2891 30.0066 15.0039C30.0066 6.71875 23.2917 0.00390625 15.0066 0.00390625ZM15.0066 28.8496C7.36011 28.8496 1.16089 22.6504 1.16089 15.0039C1.16089 7.35742 7.36011 1.1582 15.0066 1.1582C22.6531 1.1582 28.8523 7.35742 28.8523 15.0039C28.8523 22.6504 22.6531 28.8496 15.0066 28.8496Z" fill="white"/>
</g>
<defs>
<clipPath id="clip0_283_1696">
<rect width="30" height="30" fill="white" transform="translate(0.0065918 0.00390625)"/>
</clipPath>
</defs>
</svg>
